<svg width="90" height="18" viewBox="0 0 90 18" fill="none" xmlns="http://www.w3.org/2000/svg">
<path fill-rule="evenodd" clip-rule="evenodd" d="M14.015 15.4377C14.0889 16.2781 14.7616 17.3479 15.9271 17.3479H16.609C16.8733 17.3479 17.09 17.1313 17.09 16.867V1.88105H17.0871C17.0732 1.62859 16.8645 1.42638 16.609 1.42638H14.496C14.2405 1.42638 14.0318 1.62859 14.0176 1.88105H14.015V3.09875C12.7204 1.50415 10.6793 0.842285 8.63241 0.842285C3.97993 0.842285 0.208344 4.61393 0.208344 9.26678C0.208344 13.9199 3.97993 17.6917 8.63241 17.6917V17.692C10.6793 17.692 12.9099 16.8979 14.0148 15.4358L14.015 15.4377ZM8.64073 14.7431C5.68175 14.7431 3.28293 12.2915 3.28293 9.26678C3.28293 6.24255 5.68175 3.79079 8.64073 3.79079C11.5996 3.79079 13.9981 6.24255 13.9981 9.26678C13.9981 12.2915 11.5996 14.7431 8.64073 14.7431Z" fill="#A1A89D"/>
<path fill-rule="evenodd" clip-rule="evenodd" d="M48.4408 15.4373C48.5147 16.2777 49.1874 17.3474 50.3528 17.3474H51.0348C51.2991 17.3474 51.5155 17.1309 51.5155 16.8665V1.88057H51.5128C51.499 1.6281 51.29 1.4259 51.0348 1.4259H48.9218C48.6662 1.4259 48.4575 1.6281 48.4432 1.88057H48.4408V3.09826C47.146 1.50366 45.1049 0.841797 43.058 0.841797C38.4056 0.841797 34.6341 4.61344 34.6341 9.26629C34.6341 13.9194 38.4056 17.6912 43.058 17.6912V17.6915C45.1049 17.6915 47.3357 16.8974 48.4405 15.4353L48.4408 15.4373ZM43.0662 14.7427C40.1075 14.7427 37.7086 12.291 37.7086 9.26629C37.7086 6.24207 40.1075 3.79031 43.0662 3.79031C46.0253 3.79031 48.4238 6.24207 48.4238 9.26629C48.4238 12.291 46.0253 14.7427 43.0662 14.7427Z" fill="#A1A89D"/>
<path fill-rule="evenodd" clip-rule="evenodd" d="M86.9247 15.4373C86.9986 16.2777 87.6713 17.3474 88.8368 17.3474H89.5187C89.783 17.3474 89.9998 17.1309 89.9998 16.8665V1.88057H89.9967C89.9829 1.6281 89.7742 1.4259 89.5187 1.4259H87.4057C87.1502 1.4259 86.9415 1.6281 86.9274 1.88057H86.9247V3.09826C85.6302 1.50366 83.5891 0.841797 81.5422 0.841797C76.8895 0.841797 73.118 4.61344 73.118 9.26629C73.118 13.9194 76.8895 17.6912 81.5422 17.6912V17.6915C83.5891 17.6915 85.8196 16.8974 86.9245 15.4353L86.9247 15.4373ZM81.5504 14.7427C78.5914 14.7427 76.1925 12.291 76.1925 9.26629C76.1925 6.24207 78.5914 3.79031 81.5504 3.79031C84.5093 3.79031 86.908 6.24207 86.908 9.26629C86.908 12.291 84.5093 14.7427 81.5504 14.7427Z" fill="#A1A89D"/>
<path fill-rule="evenodd" clip-rule="evenodd" d="M70.4453 15.9536L70.4443 8.19902H70.4446C70.4446 3.8278 67.6869 0.878906 63.2896 0.878906C61.1904 0.878906 59.4696 2.09276 58.8619 3.1355C58.7306 2.32016 58.2976 1.46313 56.9553 1.46313H56.2711C56.0065 1.46313 55.7904 1.67979 55.7904 1.94415V15.4758V15.4778V16.9314H55.7931C55.8069 17.1834 56.0158 17.3859 56.2714 17.3859H58.3844C58.4167 17.3859 58.4484 17.3821 58.4791 17.3761C58.4931 17.3734 58.5061 17.3679 58.5197 17.364C58.5354 17.3592 58.5518 17.3555 58.5667 17.3493C58.5855 17.3415 58.6025 17.331 58.6201 17.3213C58.6286 17.3161 58.6376 17.3124 58.6459 17.3069C58.667 17.2933 58.6863 17.2769 58.705 17.2602C58.708 17.2571 58.7118 17.2551 58.7148 17.2522C58.7358 17.2319 58.755 17.2095 58.772 17.1863L58.7721 17.1859C58.8251 17.1132 58.8572 17.0257 58.8624 16.9314H58.8651V8.0788C58.8651 5.73114 60.7685 3.8278 63.1163 3.8278C65.4639 3.8278 67.3673 5.73114 67.3673 8.0788L67.3692 15.4783L67.3697 15.4758C67.3697 15.4823 67.3708 15.4891 67.3708 15.4961V16.9314H67.3736C67.3875 17.1834 67.5962 17.3859 67.8517 17.3859H69.9649C69.9973 17.3859 70.0289 17.3821 70.0595 17.3761C70.072 17.3737 70.0835 17.3688 70.0958 17.3653C70.1131 17.3603 70.1309 17.356 70.1475 17.3493C70.1648 17.3422 70.1805 17.3322 70.1969 17.323C70.2068 17.3173 70.2173 17.3133 70.2269 17.3069C70.2463 17.2941 70.2643 17.2786 70.2818 17.2632C70.2863 17.2592 70.2912 17.2561 70.2955 17.2519C70.3155 17.2326 70.3333 17.2117 70.3497 17.1898C70.3508 17.1882 70.3521 17.1869 70.3534 17.1852C70.4054 17.1132 70.4373 17.0264 70.4428 16.9326C70.4428 16.932 70.443 16.9314 70.443 16.9314H70.4459V15.9538L70.4453 15.9536Z" fill="#A1A89D"/>
<path fill-rule="evenodd" clip-rule="evenodd" d="M22.1369 13.2912C23.5475 14.2684 25.0872 14.743 26.5668 14.743C27.9764 14.743 29.4337 14.0122 29.4337 12.7403C29.4337 11.0421 26.2583 10.7779 24.2632 10.0998C22.2677 9.42168 20.549 8.01995 20.549 5.74992C20.549 2.2764 23.6439 0.841797 26.5326 0.841797C28.3628 0.841797 30.2512 1.44534 31.4755 2.30991C31.8971 2.6294 31.6403 2.9962 31.6403 2.9962L30.4717 4.66537C30.3404 4.85337 30.1107 5.0158 29.781 4.81232C29.4513 4.60897 28.2949 3.79043 26.5326 3.79043C24.7701 3.79043 23.7085 4.60436 23.7085 5.6132C23.7085 6.82297 25.0883 7.20346 26.7045 7.6158C29.5208 8.37499 32.5931 9.28752 32.5931 12.7403C32.5931 15.8007 29.7306 17.6921 26.5668 17.6921C24.1693 17.6921 22.1281 17.0086 20.4161 15.7523C20.0595 15.3953 20.3086 15.0639 20.3086 15.0639L21.4715 13.4032C21.7081 13.0927 22.0064 13.201 22.1369 13.2912Z" fill="#A1A89D"/>
</svg>
